<svg id="Capa_1" enable-background="new 0 0 512 512" height="512" viewBox="0 0 512 512" width="512" xmlns="http://www.w3.org/2000/svg"><g><path d="m443.499 253.354c-21.547 50.371-71.611 85.634-129.899 85.479-77.124-.205-140.228-63.31-140.433-140.433-.155-58.288 35.108-108.352 85.479-129.899 5.842-2.499 4.03-11.29-2.324-11.301-.107 0-.214 0-.322 0-109.794 0-198.8 89.006-198.8 198.8 0 83.791 51.845 155.462 125.202 184.716 3.614 1.441 7.823.246 9.901-3.043 3.103-4.91 8.71-8.076 15.033-7.691 7.439.453 13.761 6.023 15.212 13.332.135.679.225 1.35.274 2.013.293 3.986 3.205 7.258 7.168 7.777 8.512 1.115 17.192 1.696 26.009 1.696 109.794 0 198.8-89.006 198.8-198.8 0-.107 0-.214 0-.322-.01-6.354-8.801-8.166-11.3-2.324z" fill="#ffe07d"/><g fill="#ffd064"><path d="m454.8 255.678c-.01-6.354-8.802-8.166-11.301-2.324-3.521 8.232-7.817 16.051-12.773 23.387-9.979 96.257-88.64 172.105-186.131 177.714 3.776.215 7.575.345 11.404.345 109.794 0 198.8-89.006 198.8-198.8.001-.107.001-.214.001-.322z"/><path d="m235.646 68.501c-50.371 21.547-85.634 71.61-85.479 129.899.205 77.124 63.309 140.228 140.433 140.433 3.992.011 7.941-.16 11.85-.475-71.964-5.908-129.088-66.586-129.283-139.958-.155-58.288 35.108-108.352 85.479-129.899 5.842-2.499 4.03-11.29-2.324-11.301-.107 0-.214 0-.322 0-6.563 0-13.048.327-19.448.948 3.533 2.335 3.768 8.353-.906 10.353z"/></g><g fill="#fff0af"><path d="m156.6 16.567h-9.067v-9.067c0-4.142-3.358-7.5-7.5-7.5s-7.5 3.358-7.5 7.5v9.067h-9.066c-4.142 0-7.5 3.358-7.5 7.5s3.358 7.5 7.5 7.5h9.066v9.066c0 4.142 3.358 7.5 7.5 7.5s7.5-3.358 7.5-7.5v-9.066h9.067c4.142 0 7.5-3.358 7.5-7.5s-3.358-7.5-7.5-7.5z"/><path d="m388.533 480.433h-9.066v-9.066c0-4.142-3.358-7.5-7.5-7.5s-7.5 3.358-7.5 7.5v9.066h-9.067c-4.142 0-7.5 3.358-7.5 7.5s3.358 7.5 7.5 7.5h9.067v9.067c0 4.142 3.358 7.5 7.5 7.5s7.5-3.358 7.5-7.5v-9.067h9.066c4.142 0 7.5-3.358 7.5-7.5s-3.358-7.5-7.5-7.5z"/></g><circle cx="115.183" cy="305.7" fill="#ffd064" r="16.567"/><ellipse cx="131.75" cy="239.433" fill="#ffa95f" rx="16.567" ry="16.567" transform="matrix(.924 -.383 .383 .924 -81.598 68.644)"/><g fill="#ffe07d"><path d="m463.083 381.033c-4.143 0-7.5 3.357-7.5 7.5v16.567c0 4.143 3.357 7.5 7.5 7.5s7.5-3.357 7.5-7.5v-16.566c0-4.143-3.357-7.501-7.5-7.501z"/><path d="m463.083 447.3c-4.143 0-7.5 3.357-7.5 7.5v16.566c0 4.143 3.357 7.5 7.5 7.5s7.5-3.357 7.5-7.5v-16.566c0-4.143-3.357-7.5-7.5-7.5z"/><path d="m504.5 422.45h-16.566c-4.143 0-7.5 3.357-7.5 7.5s3.357 7.5 7.5 7.5h16.566c4.143 0 7.5-3.357 7.5-7.5s-3.357-7.5-7.5-7.5z"/><path d="m438.233 422.45h-16.566c-4.143 0-7.5 3.357-7.5 7.5s3.357 7.5 7.5 7.5h16.566c4.143 0 7.5-3.357 7.5-7.5s-3.357-7.5-7.5-7.5z"/><path d="m48.917 33.134c-4.143 0-7.5 3.357-7.5 7.5v16.566c0 4.143 3.357 7.5 7.5 7.5s7.5-3.357 7.5-7.5v-16.566c0-4.143-3.357-7.5-7.5-7.5z"/><path d="m48.917 99.4c-4.143 0-7.5 3.357-7.5 7.5v16.566c0 4.143 3.357 7.5 7.5 7.5s7.5-3.357 7.5-7.5v-16.566c0-4.142-3.357-7.5-7.5-7.5z"/><path d="m90.333 74.55h-16.566c-4.143 0-7.5 3.357-7.5 7.5s3.357 7.5 7.5 7.5h16.566c4.143 0 7.5-3.357 7.5-7.5s-3.357-7.5-7.5-7.5z"/><path d="m24.066 74.55h-16.566c-4.143 0-7.5 3.357-7.5 7.5s3.357 7.5 7.5 7.5h16.566c4.143 0 7.5-3.357 7.5-7.5s-3.357-7.5-7.5-7.5z"/></g></g></svg>